<?xml version="1.0" encoding="UTF-8"?>
<svg id="Layer_1" data-name="Layer 1" xmlns="http://www.w3.org/2000/svg" version="1.1" viewBox="0 0 512 512">
  <defs>
    <style>
      .cls-1 {
        fill: #000;
      }

      .cls-1, .cls-2 {
        stroke-width: 0px;
      }

      .cls-2 {
        fill: #fff;
      }
    </style>
  </defs>
  <path class="cls-1" d="M473.6,309.4c.1-.5.3-1,.4-1.5.2-.8.4-1.6.6-2.4,0-.3.2-.7.2-1,.2-.9.4-1.9.6-2.8,0-.2,0-.4.1-.6.2-1,.4-2.1.6-3.1,0,0,0-.2,0-.3,2.5-13.5,3.9-27.4,3.9-41.7,0-123.6-100.1-223.8-223.6-224-.1,0-.2,0-.4,0s-.2,0-.4,0c-123.5.2-223.6,100.4-223.6,224s.5,16.3,1.3,24.2c0,0,0,0,0,0,.2,1.7.4,3.5.6,5.2,0,0,0,0,0,.1.2,1.7.5,3.4.7,5.1,0,0,0,.2,0,.2.3,1.6.5,3.3.8,4.9,0,.1,0,.3,0,.4.3,1.6.6,3.2.9,4.7,0,.2,0,.4.1.6.3,1.5.6,3,1,4.5,0,.2.1.5.2.7.3,1.4.7,2.9,1,4.3,0,.3.2.6.2.9.4,1.4.7,2.7,1.1,4.1.1.4.2.8.3,1.2.4,1.3.7,2.6,1.1,3.8.1.5.3,1,.4,1.4.4,1.2.7,2.3,1.1,3.5.2.6.4,1.2.6,1.8.4,1,.7,2.1,1.1,3.1.3.8.6,1.6.9,2.3.3.8.6,1.7.9,2.5.6,1.6,1.3,3.2,1.9,4.8,0,0,0,.2.1.2.6,1.4,1.1,2.7,1.7,4.1,0,0,0,0,0,0,1.2,2.8,2.5,5.5,3.8,8.2,1.3,2.7,2.7,5.4,4.1,8,0,0,0,0,0,0,.7,1.2,1.3,2.4,2,3.7.1.2.2.4.3.6.7,1.2,1.3,2.3,2,3.5,0,.2.2.3.3.5,1.1,1.9,2.3,3.8,3.5,5.7,1.9,3,3.8,5.9,5.8,8.8.1.2.2.3.3.5.7,1,1.5,2,2.2,3.1.2.3.4.6.6.9.7,1,1.4,1.9,2.2,2.9.2.3.4.6.7.9.8,1,1.5,2,2.3,2.9,0,.1.2.2.3.3,2.5,3.2,5.2,6.3,7.9,9.4.3.3.5.6.8.9.7.8,1.5,1.7,2.3,2.5.3.4.7.7,1,1.1.7.8,1.5,1.6,2.2,2.3.4.4.7.8,1.1,1.1.8.8,1.5,1.5,2.3,2.3.3.3.6.6,1,.9,2.6,2.6,5.3,5.1,8.1,7.5.4.4.8.8,1.3,1.1.7.7,1.5,1.3,2.3,1.9.5.4,1,.8,1.5,1.3.7.6,1.5,1.2,2.2,1.8.5.4,1,.8,1.6,1.3.7.6,1.5,1.2,2.3,1.8.5.4,1.1.8,1.6,1.2,2.7,2,5.4,4,8.2,6,.6.4,1.2.8,1.8,1.3.7.5,1.5,1,2.2,1.5.6.4,1.3.8,1.9,1.3.7.5,1.5,1,2.2,1.4.7.4,1.3.8,2,1.2.7.5,1.5.9,2.2,1.4.7.4,1.4.8,2.1,1.3.7.4,1.4.8,2.2,1.3,1.3.8,2.7,1.5,4,2.2.7.4,1.4.7,2.1,1.1.8.4,1.5.8,2.3,1.2.7.4,1.5.7,2.2,1.1.8.4,1.5.8,2.3,1.1.7.4,1.5.7,2.2,1.1.8.4,1.5.7,2.3,1.1.7.3,1.5.7,2.2,1,.8.4,1.7.7,2.5,1.1.7.3,1.4.6,2.1.9,1.5.6,2.9,1.2,4.4,1.8.7.3,1.3.5,2,.8.9.4,1.8.7,2.7,1,.7.3,1.5.5,2.2.8.8.3,1.7.6,2.5.9.8.3,1.5.5,2.3.8.9.3,1.7.6,2.6.8.8.2,1.5.5,2.3.7.9.3,1.8.5,2.7.8.7.2,1.4.4,2.2.6,1.5.4,3.1.9,4.6,1.3,0,0,0,0,0,0,.5-1.4,111.9-1.4,112.4,0,0,0,0,0,0,0,1.6-.4,3.2-.8,4.8-1.3.6-.2,1.3-.4,1.9-.6,1-.3,2-.6,3-.9.7-.2,1.4-.4,2.1-.7.9-.3,1.8-.6,2.8-.9.7-.2,1.4-.5,2.1-.7.9-.3,1.9-.6,2.8-1,.7-.2,1.3-.5,2-.7,1.1-.4,2.1-.8,3.2-1.2.5-.2,1-.4,1.5-.6,1.5-.6,3-1.2,4.5-1.8.6-.3,1.3-.5,1.9-.8.9-.4,1.8-.8,2.7-1.2.7-.3,1.4-.6,2.1-.9.8-.4,1.7-.8,2.5-1.2.7-.3,1.4-.7,2.1-1,.8-.4,1.7-.8,2.5-1.2.7-.3,1.4-.7,2-1,.9-.5,1.8-.9,2.7-1.4.6-.3,1.2-.6,1.8-.9,1.4-.8,2.8-1.5,4.1-2.3.6-.4,1.3-.8,1.9-1.1.8-.5,1.6-.9,2.4-1.4.7-.4,1.4-.8,2.1-1.3.7-.4,1.4-.9,2.2-1.3.7-.4,1.4-.9,2.1-1.3.7-.5,1.4-.9,2.1-1.4.7-.5,1.4-.9,2.1-1.4.7-.5,1.4-1,2.1-1.4.7-.5,1.4-1,2.1-1.4,1.2-.9,2.4-1.7,3.6-2.6.7-.5,1.4-1.1,2.1-1.6.6-.5,1.2-.9,1.8-1.4.7-.6,1.4-1.1,2.1-1.7.6-.5,1.1-.9,1.7-1.4.7-.6,1.4-1.2,2.1-1.8.5-.5,1.1-.9,1.6-1.4.7-.6,1.4-1.2,2.2-1.9.5-.4,1-.8,1.4-1.3,2.7-2.4,5.3-4.8,7.8-7.3.4-.4.8-.7,1.1-1.1.7-.7,1.5-1.5,2.2-2.2.4-.4.8-.8,1.2-1.2.7-.8,1.4-1.5,2.2-2.3.4-.4.7-.8,1.1-1.2.7-.8,1.5-1.6,2.2-2.4.3-.3.6-.6.8-.9,2.6-3,5.2-6,7.7-9.1.1-.2.3-.4.4-.6.7-.9,1.5-1.9,2.2-2.9.2-.3.5-.6.7-1,.7-.9,1.4-1.9,2.1-2.8.2-.3.5-.6.7-.9.7-1,1.4-2,2.2-3,.1-.2.2-.3.4-.5,2-2.9,3.9-5.8,5.8-8.7,1.2-1.9,2.3-3.8,3.5-5.7.1-.2.2-.4.3-.6.7-1.1,1.3-2.3,2-3.5.1-.2.2-.4.3-.6.7-1.2,1.3-2.4,2-3.6,0,0,0,0,0,0,1.5-2.8,2.9-5.7,4.3-8.6,1.2-2.5,2.4-5.1,3.5-7.6,0,0,0,0,0-.1.6-1.3,1.1-2.7,1.7-4,0,0,0-.2.1-.3,1.9-4.8,3.7-9.6,5.3-14.6,1.2-3.7,2.4-7.5,3.4-11.4,0,0,0,0,0,0,.3-1.1.6-2.3.9-3.4.2-.6.3-1.3.5-1.9Z"/>
  <path class="cls-2" d="M311.4,468.5c0-7.5.3-32.3.3-63s-7.2-35.4-15.2-42.5c49.9-5.7,102.3-25.1,102.3-113.3s-8.7-45.5-23-61.6c2.3-5.8,10-29.2-2.2-60.8-1.6-.4-3.3-.6-5-.5-8.1,0-26.4,3.1-56.6,24.1-36.7-10.3-75.5-10.3-112.2,0-30.2-21-48.5-24.1-56.6-24.1-1.7,0-3.4.1-5,.5-12.2,31.6-4.5,55-2.2,60.8-14.3,16-23,36.5-23,61.6,0,88,52.3,107.7,102,113.5-6.4,5.8-12.2,15.9-14.2,30.7-8,3.8-16.7,5.8-25.6,6-13.4,0-28.4-5.5-39.6-25.1,0,0-11.8-21.8-34.3-23.8h0c-1.5,0-20.9.4-1.4,14.1,0,0,14.7,7.1,24.9,33.6,0,0,9.8,33.5,52.9,33.5,7.6,0,15.2-1,22.6-2.7,0,19.2.3,33.6.3,39.1s-.2,2.9-.7,4.3c0,0,0,0,0,0,18,4.7,36.8,7.1,56.3,7.1s38.2-2.5,56.1-7.1c0,0,0,0,0,0-.5-1.4-.7-2.9-.7-4.4Z"/>
</svg>