<?xml version="1.0" encoding="UTF-8"?>
<svg id="Layer_1" data-name="Layer 1" xmlns="http://www.w3.org/2000/svg" version="1.1" viewBox="0 0 512 512">
  <defs>
    <style>
      .cls-1 {
        fill: #000;
      }

      .cls-1, .cls-2 {
        stroke-width: 0px;
      }

      .cls-2 {
        fill: #ffdf00;
      }
    </style>
  </defs>
  <path class="cls-2" d="M255.5,33.2c-122.1,0-221.1,99-221.1,221.1s99,221.1,221.1,221.1,221.1-99,221.1-221.1S377.6,33.2,255.5,33.2Z"/>
  <path class="cls-1" d="M269.5,360.6c0,36.8-21.7,54.7-53.2,54.7s-44.9-14.7-53.2-32.5l28.9-17.5c5.6,9.9,9.8,18.3,22,18.3s18.4-4.6,18.4-22.3v-118.7h37.1v118Z"/>
  <path class="cls-1" d="M353.3,414.4c-33,0-54.3-14.9-64.7-35.4l28.9-16.8c7.6,12.4,17.5,20.7,35,20.7s23.2-6.5,23.2-16.7-8.8-16.5-25-23.6l-8.9-3.8c-25.6-10.9-42.6-24.6-42.6-53.5s20.3-46.1,52-46.1,38.8,7,50.5,27.6l-27.7,17.8c-6.1-10.9-12.6-15.2-22.8-15.2s-17,6.6-17,15.2,6.6,15,21.8,21.6l8.9,3.8c30.2,12.9,47.2,26.1,47.2,55.8,0,32-25.1,48.6-58.8,48.6Z"/>
</svg>