<?xml version="1.0" encoding="UTF-8"?>
<svg id="Layer_1" data-name="Layer 1" xmlns="http://www.w3.org/2000/svg" version="1.1" viewBox="0 0 512 512">
  <defs>
    <style>
      .cls-1 {
        fill: #fe7361;
      }

      .cls-1, .cls-2, .cls-3, .cls-4, .cls-5, .cls-6 {
        stroke-width: 0px;
      }

      .cls-2 {
        fill: #01bbfe;
      }

      .cls-3 {
        fill: #b659fe;
      }

      .cls-4 {
        fill: #000;
      }

      .cls-5 {
        fill: #fe4d12;
      }

      .cls-6 {
        fill: #01ce7f;
      }
    </style>
  </defs>
  <path class="cls-4" d="M256.5,35.2c-122.1,0-221.1,99-221.1,221.1s99,221.1,221.1,221.1,221.1-99,221.1-221.1S378.6,35.2,256.5,35.2Z"/>
  <g>
    <path class="cls-6" d="M256.4,319.8c0,9.2.3,18.5.2,27.7-.1,13.5.7,27.1-.4,40.6-2.3,29.3-24.1,52.6-53,57.2-.7.1-1.5-.2-1.9.8h-17c-.9-1.4-2.4-1-3.6-1.3-31-6.5-51.9-33.8-50.3-65.9,1.4-29.9,25.5-55.1,56.2-58.7,3.1.5,6.1-.4,9.2-.4,20.2,0,40.4,0,60.7,0Z"/>
    <path class="cls-5" d="M185.9,193.7c-2.5-1.4-5.4-1.3-8.1-2-29.8-7.4-49.2-33.3-48.3-64.6.9-28.7,22.8-53.7,51.9-59,3.4-.6,6.9-.9,10.3-.9,20.8,0,41.6,0,62.5,0,.9,0,1.7.1,2.6.2,0,38.8,0,77.5,0,116.3,0,3.2,0,6.4-.1,9.6-6.9,0-13.7.3-20.6.3-14.5,0-29-.1-43.5-.2-1.5-.6-3.1-.9-4.6.2-.7,0-1.4,0-2.1.1Z"/>
    <path class="cls-3" d="M192.5,193.4c14.5,0,29,.2,43.5.2,6.9,0,13.7-.2,20.6-.3,0,.2,0,.3.1.4,0,18.1,0,36.3,0,54.4,0,5.8,0,11.6,0,17.4,0,16.5-.1,33-.2,49.4,0,1.6-.2,3.2-.3,4.8-20.2,0-40.4,0-60.7,0-3,0-6.1.9-9.2.4-1.7-1.5-3.9-1.1-5.9-1.6-31.2-6.5-52.7-35.2-50.2-67.2,2.2-28.5,24.3-52.4,52.6-57,1-.2,1.9-.5,2.9-.7.7,0,1.4,0,2.1-.1,1.5,0,3-.1,4.6-.2Z"/>
    <path class="cls-1" d="M256.7,193.3c0-3.2.1-6.4.1-9.6,0-38.8,0-77.5,0-116.3,20.6,0,41.2-.1,61.7-.2,8.7,0,17.1,1.7,25.2,5.1,24.8,10.3,41,37.5,38.1,63.9-3.2,28.5-23.8,51.2-51,56.1-2.7.5-5.3.8-8,1.3-3.7,0-7.4.1-11.1.2-18.3,0-36.6,0-54.9,0-.1-.1-.2-.3-.1-.4Z"/>
    <path class="cls-2" d="M311.7,193.8c3.7,0,7.4-.1,11.1-.2,31.6,2.3,54.9,24,59.6,55.3,4.7,32-19,64.5-51.1,69.9-35.4,6-67.2-16.2-73.8-51.4-.1-.6-.4-1.2-.6-1.7,0-5.8,0-11.6,0-17.4.2-.7.5-1.4.6-2.1,4.9-24.8,19.4-41.3,43.2-49.5,3.6-1.2,7.3-1.9,11-2.8Z"/>
    <path class="cls-1" d="M192.5,193.4c-1.5,0-3,.1-4.6.2,1.5-1.1,3-.8,4.6-.2Z"/>
  </g>
</svg>