<?xml version="1.0" encoding="UTF-8"?>
<svg id="Layer_1" data-name="Layer 1" xmlns="http://www.w3.org/2000/svg" version="1.1" viewBox="0 0 512 512">
  <defs>
    <style>
      .cls-1 {
        fill: #2196f3;
      }

      .cls-1, .cls-2 {
        stroke-width: 0px;
      }

      .cls-2 {
        fill: #fff;
      }
    </style>
  </defs>
  <path class="cls-1" d="M256,33.9c-122.1,0-221.1,99-221.1,221.1s99,221.1,221.1,221.1,221.1-99,221.1-221.1S378.1,33.9,256,33.9ZM354.7,366.9l-98.6,28.1-98.5-28.2-6.8-77.8h48.3l3.4,39.6,53.6,15.2v.3c.1,0,53.6-14.8,53.6-14.8l5.6-64.2h-112.4l-4-50h120.7l4.3-51h-184l-4-49h240.6l-21.9,251.9h0Z"/>
  <path class="cls-2" d="M354.7,366.9l-98.6,28.1-98.5-28.2-6.8-77.8h48.3l3.4,39.6,53.6,15.2v.3c.1,0,53.6-14.8,53.6-14.8l5.6-64.2h-112.4l-4-50h120.7l4.3-51h-184l-4-49h240.6l-21.9,251.9h0Z"/>
</svg>