<?xml version="1.0" encoding="UTF-8"?>
<svg id="Layer_1" data-name="Layer 1" xmlns="http://www.w3.org/2000/svg" version="1.1" viewBox="0 0 512 512">
  <defs>
    <style>
      .cls-1 {
        fill: #fe5722;
      }

      .cls-1, .cls-2 {
        stroke-width: 0px;
      }

      .cls-2 {
        fill: #fff;
      }
    </style>
  </defs>
  <path class="cls-1" d="M256,33.9c-122.1,0-221.1,99-221.1,221.1s99,221.1,221.1,221.1,221.1-99,221.1-221.1S378.1,33.9,256,33.9ZM372,164h-184l4,51h176l-13.5,151.4-98.5,28.1-98.7-28-6.8-77.5h48.3l3.4,39.3,53.8,14.8,53.4-14.9,5.6-64.2h-167l-12.6-149.6h240.8l-4.2,49.6Z"/>
  <polygon class="cls-2" points="372 164 188 164 192 215 368 215 354.5 366.4 256 394.5 157.3 366.5 150.5 289 198.8 289 202.2 328.3 256 343.1 309.4 328.2 315 264 148 264 135.4 114.4 376.2 114.4 372 164"/>
</svg>