<?xml version="1.0" encoding="UTF-8"?>
<svg id="Layer_1" data-name="Layer 1" xmlns="http://www.w3.org/2000/svg" version="1.1" viewBox="0 0 512 512">
  <defs>
    <style>
      .cls-1 {
        fill: #fedf5d;
      }

      .cls-1, .cls-2, .cls-3 {
        stroke-width: 0px;
      }

      .cls-2 {
        fill: #3d79aa;
      }

      .cls-3 {
        fill: #fff;
      }
    </style>
  </defs>
  <path class="cls-2" d="M314,36.4c-18.6-3.1-45.8-4.5-64.3-4.4-17.3,0-34.6,1.5-51.7,4.4-45.7,8-54.1,24.7-54.1,55.5v36.1h112v16H107.6c-41.6,0-75.3,49.7-75.6,111.1v.9c0,10.7,1,21.5,3.1,32,9.3,46.3,38.2,80,72.5,80h20.4v-54c0-31.3,20.8-59.9,55-66.1l9.9-1.2h121.1c5.1,0,10.2-.7,15.1-2,23.1-6.2,39.1-27.1,38.9-51v-101.8c0-28.9-24.7-50.7-54-55.5ZM194.9,105.5c-11.2,0-20.4-9.1-20.4-20.3s9.1-20.4,20.3-20.4,20.4,9.1,20.4,20.3c0,0,0,0,0,.1,0,11.2-9.1,20.3-20.3,20.3h0Z"/>
  <path class="cls-1" d="M475.3,217c-10.7-42.6-38.4-73-70.9-73h-17.7v47.4c0,39.6-26,68.2-57.7,73.1-3.2.5-6.4.7-9.7.8h-121.2c-5.1,0-10.3.7-15.2,2-22.3,5.9-38.9,24.4-38.9,48.5v101.8c0,29,29.1,46,57.7,54.3,34.2,10,71.5,11.8,112.4,0,27.2-7.8,53.9-23.5,53.9-54.3v-33.5h-112v-16h148.4c29.4,0,55-24.9,67.5-61.3,5.5-16.3,8.2-33.5,8.2-50.7,0-13.1-1.6-26.2-4.7-39ZM316.5,404c11.2,0,20.4,9.1,20.4,20.3,0,11.2-9.1,20.4-20.3,20.4-11.2,0-20.4-9.1-20.4-20.3,0,0,0,0,0-.1,0-11.2,9.1-20.3,20.3-20.3h0Z"/>
  <path class="cls-3" d="M194.9,105.5c-11.2,0-20.4-9.1-20.4-20.3s9.1-20.4,20.3-20.4,20.4,9.1,20.4,20.3c0,0,0,0,0,.1,0,11.2-9.1,20.3-20.3,20.3h0Z"/>
  <path class="cls-3" d="M316.5,404c11.2,0,20.4,9.1,20.4,20.3,0,11.2-9.1,20.4-20.3,20.4-11.2,0-20.4-9.1-20.4-20.3,0,0,0,0,0-.1,0-11.2,9.1-20.3,20.3-20.3h0Z"/>
</svg>